<svg
  width="32"
  height="33"
  viewBox="0 0 32 33"
  fill="none"
  xmlns="http://www.w3.org/2000/svg"
>
<rect y="0.5" width="32" height="32" rx="16" fill="#32CD32" />
<path
    d="M9.36719 23.3281H22.6172C24.3594 23.3281 25.2891 22.3984 25.2891 20.6797V16.2578C25.2891 15.2656 25.1562 14.8438 24.6953 14.2578L22.2344 11.0234C21.2812 9.77344 20.7969 9.41406 19.3672 9.41406H12.625C11.1953 9.41406 10.7109 9.77344 9.75 11.0234L7.29688 14.2578C6.84375 14.8438 6.70312 15.2656 6.70312 16.2578V20.6797C6.70312 22.4062 7.64062 23.3281 9.36719 23.3281ZM15.9922 18.3047C14.8047 18.3047 14.0625 17.4219 14.0625 16.4219V16.3281C14.0625 15.9688 13.8438 15.625 13.3906 15.625H8.89062C8.58594 15.625 8.53125 15.3672 8.6875 15.1719L11.5 11.4531C11.8047 11.0391 12.1797 10.8672 12.6797 10.8672H19.3125C19.8047 10.8672 20.1875 11.0391 20.4922 11.4531L23.3047 15.1719C23.4531 15.3672 23.3984 15.625 23.1016 15.625H18.6016C18.1484 15.625 17.9297 15.9688 17.9297 16.3281V16.4219C17.9297 17.4219 17.1875 18.3047 15.9922 18.3047Z"
    fill="white"
  />
</svg>
