<svg
  width="18"
  height="24"
  viewBox="0 0 18 24"
  fill="none"
  xmlns="http://www.w3.org/2000/svg"
>
<path
    d="M0 12C0 12.3458 0.127827 12.6407 0.393314 12.9051L8.06293 20.6644C8.26942 20.8881 8.54474 21 8.85939 21C9.49853 21 10 20.4915 10 19.8203C10 19.4949 9.87217 19.2 9.65585 18.9763L2.74336 12L9.65585 5.02373C9.87217 4.78983 10 4.49492 10 4.16949C10 3.50847 9.49853 3 8.85939 3C8.54474 3 8.26942 3.11186 8.06293 3.33559L0.393314 11.0949C0.127827 11.3593 0.00983284 11.6542 0 12Z"
    fill="#007AFF"
  />
</svg>
