<svg
  width="32"
  height="33"
  viewBox="0 0 32 33"
  fill="none"
  xmlns="http://www.w3.org/2000/svg"
>
<rect y="0.5" width="32" height="32" rx="16" fill="#F14C3C" />
<path
    d="M10.2393 24.3677H21.7441C23.5952 24.3677 24.583 23.3799 24.583 21.5537V11.4766C24.583 9.65039 23.5952 8.6709 21.7441 8.6709H10.2393C8.40479 8.6709 7.40869 9.65039 7.40869 11.4766V21.5537C7.40869 23.3882 8.40479 24.3677 10.2393 24.3677ZM10.3223 22.4668C9.6665 22.4668 9.30957 22.1348 9.30957 21.4458V13.9419C9.30957 13.2446 9.6665 12.9209 10.3223 12.9209H21.6611C22.3169 12.9209 22.6821 13.2446 22.6821 13.9419V21.4458C22.6821 22.1348 22.3169 22.4668 21.6611 22.4668H10.3223ZM14.4146 15.6934H14.9043C15.2031 15.6934 15.3027 15.6021 15.3027 15.3032V14.8135C15.3027 14.5146 15.2031 14.4233 14.9043 14.4233H14.4146C14.1157 14.4233 14.0078 14.5146 14.0078 14.8135V15.3032C14.0078 15.6021 14.1157 15.6934 14.4146 15.6934ZM17.0874 15.6934H17.5771C17.876 15.6934 17.9756 15.6021 17.9756 15.3032V14.8135C17.9756 14.5146 17.876 14.4233 17.5771 14.4233H17.0874C16.7886 14.4233 16.689 14.5146 16.689 14.8135V15.3032C16.689 15.6021 16.7886 15.6934 17.0874 15.6934ZM19.7603 15.6934H20.25C20.5488 15.6934 20.6567 15.6021 20.6567 15.3032V14.8135C20.6567 14.5146 20.5488 14.4233 20.25 14.4233H19.7603C19.4614 14.4233 19.3618 14.5146 19.3618 14.8135V15.3032C19.3618 15.6021 19.4614 15.6934 19.7603 15.6934ZM11.7417 18.3247H12.2231C12.5303 18.3247 12.6299 18.2334 12.6299 17.9346V17.4448C12.6299 17.146 12.5303 17.0547 12.2231 17.0547H11.7417C11.4429 17.0547 11.335 17.146 11.335 17.4448V17.9346C11.335 18.2334 11.4429 18.3247 11.7417 18.3247ZM14.4146 18.3247H14.9043C15.2031 18.3247 15.3027 18.2334 15.3027 17.9346V17.4448C15.3027 17.146 15.2031 17.0547 14.9043 17.0547H14.4146C14.1157 17.0547 14.0078 17.146 14.0078 17.4448V17.9346C14.0078 18.2334 14.1157 18.3247 14.4146 18.3247ZM17.0874 18.3247H17.5771C17.876 18.3247 17.9756 18.2334 17.9756 17.9346V17.4448C17.9756 17.146 17.876 17.0547 17.5771 17.0547H17.0874C16.7886 17.0547 16.689 17.146 16.689 17.4448V17.9346C16.689 18.2334 16.7886 18.3247 17.0874 18.3247ZM19.7603 18.3247H20.25C20.5488 18.3247 20.6567 18.2334 20.6567 17.9346V17.4448C20.6567 17.146 20.5488 17.0547 20.25 17.0547H19.7603C19.4614 17.0547 19.3618 17.146 19.3618 17.4448V17.9346C19.3618 18.2334 19.4614 18.3247 19.7603 18.3247ZM11.7417 20.9644H12.2231C12.5303 20.9644 12.6299 20.8647 12.6299 20.5659V20.0845C12.6299 19.7856 12.5303 19.686 12.2231 19.686H11.7417C11.4429 19.686 11.335 19.7856 11.335 20.0845V20.5659C11.335 20.8647 11.4429 20.9644 11.7417 20.9644ZM14.4146 20.9644H14.9043C15.2031 20.9644 15.3027 20.8647 15.3027 20.5659V20.0845C15.3027 19.7856 15.2031 19.686 14.9043 19.686H14.4146C14.1157 19.686 14.0078 19.7856 14.0078 20.0845V20.5659C14.0078 20.8647 14.1157 20.9644 14.4146 20.9644ZM17.0874 20.9644H17.5771C17.876 20.9644 17.9756 20.8647 17.9756 20.5659V20.0845C17.9756 19.7856 17.876 19.686 17.5771 19.686H17.0874C16.7886 19.686 16.689 19.7856 16.689 20.0845V20.5659C16.689 20.8647 16.7886 20.9644 17.0874 20.9644Z"
    fill="white"
  />
</svg>
