<svg
  width="32"
  height="32"
  viewBox="0 0 32 32"
  fill="none"
  xmlns="http://www.w3.org/2000/svg"
>
<rect width="32" height="32" rx="10" fill="#F14C3C" />
<path
    d="M10.3306 23.6602H21.6694C23.4043 23.6602 24.2676 22.7969 24.2676 21.0869V10.9517C24.2676 9.2417 23.4043 8.37842 21.6694 8.37842H10.3306C8.5957 8.37842 7.72412 9.2334 7.72412 10.9517V21.0869C7.72412 22.8052 8.5957 23.6602 10.3306 23.6602ZM10.2061 22.3237C9.46729 22.3237 9.06055 21.9336 9.06055 21.1616V13.334C9.06055 12.5703 9.46729 12.1719 10.2061 12.1719H21.7773C22.5161 12.1719 22.9312 12.5703 22.9312 13.334V21.1616C22.9312 21.9336 22.5161 22.3237 21.7773 22.3237H10.2061ZM14.3813 15.1519H14.8711C15.1616 15.1519 15.2529 15.0688 15.2529 14.7783V14.2886C15.2529 13.998 15.1616 13.9067 14.8711 13.9067H14.3813C14.0908 13.9067 13.9912 13.998 13.9912 14.2886V14.7783C13.9912 15.0688 14.0908 15.1519 14.3813 15.1519ZM17.1372 15.1519H17.627C17.9175 15.1519 18.0171 15.0688 18.0171 14.7783V14.2886C18.0171 13.998 17.9175 13.9067 17.627 13.9067H17.1372C16.8467 13.9067 16.7471 13.998 16.7471 14.2886V14.7783C16.7471 15.0688 16.8467 15.1519 17.1372 15.1519ZM19.8931 15.1519H20.3828C20.6733 15.1519 20.7729 15.0688 20.7729 14.7783V14.2886C20.7729 13.998 20.6733 13.9067 20.3828 13.9067H19.8931C19.6025 13.9067 19.5112 13.998 19.5112 14.2886V14.7783C19.5112 15.0688 19.6025 15.1519 19.8931 15.1519ZM11.6255 17.8662H12.1069C12.4058 17.8662 12.4971 17.7832 12.4971 17.4927V17.0029C12.4971 16.7124 12.4058 16.6294 12.1069 16.6294H11.6255C11.3267 16.6294 11.2354 16.7124 11.2354 17.0029V17.4927C11.2354 17.7832 11.3267 17.8662 11.6255 17.8662ZM14.3813 17.8662H14.8711C15.1616 17.8662 15.2529 17.7832 15.2529 17.4927V17.0029C15.2529 16.7124 15.1616 16.6294 14.8711 16.6294H14.3813C14.0908 16.6294 13.9912 16.7124 13.9912 17.0029V17.4927C13.9912 17.7832 14.0908 17.8662 14.3813 17.8662ZM17.1372 17.8662H17.627C17.9175 17.8662 18.0171 17.7832 18.0171 17.4927V17.0029C18.0171 16.7124 17.9175 16.6294 17.627 16.6294H17.1372C16.8467 16.6294 16.7471 16.7124 16.7471 17.0029V17.4927C16.7471 17.7832 16.8467 17.8662 17.1372 17.8662ZM19.8931 17.8662H20.3828C20.6733 17.8662 20.7729 17.7832 20.7729 17.4927V17.0029C20.7729 16.7124 20.6733 16.6294 20.3828 16.6294H19.8931C19.6025 16.6294 19.5112 16.7124 19.5112 17.0029V17.4927C19.5112 17.7832 19.6025 17.8662 19.8931 17.8662ZM11.6255 20.5889H12.1069C12.4058 20.5889 12.4971 20.4976 12.4971 20.207V19.7173C12.4971 19.4268 12.4058 19.3438 12.1069 19.3438H11.6255C11.3267 19.3438 11.2354 19.4268 11.2354 19.7173V20.207C11.2354 20.4976 11.3267 20.5889 11.6255 20.5889ZM14.3813 20.5889H14.8711C15.1616 20.5889 15.2529 20.4976 15.2529 20.207V19.7173C15.2529 19.4268 15.1616 19.3438 14.8711 19.3438H14.3813C14.0908 19.3438 13.9912 19.4268 13.9912 19.7173V20.207C13.9912 20.4976 14.0908 20.5889 14.3813 20.5889ZM17.1372 20.5889H17.627C17.9175 20.5889 18.0171 20.4976 18.0171 20.207V19.7173C18.0171 19.4268 17.9175 19.3438 17.627 19.3438H17.1372C16.8467 19.3438 16.7471 19.4268 16.7471 19.7173V20.207C16.7471 20.4976 16.8467 20.5889 17.1372 20.5889Z"
    fill="white"
  />
</svg>
