<svg
  width="18"
  height="13"
  viewBox="0 0 18 13"
  fill="none"
  xmlns="http://www.w3.org/2000/svg"
>
<path
    d="M1.97656 3.21094C2.64062 3.21094 3.1875 2.66406 3.1875 2C3.1875 1.33594 2.64062 0.789062 1.97656 0.789062C1.3125 0.789062 0.765625 1.33594 0.765625 2C0.765625 2.66406 1.3125 3.21094 1.97656 3.21094ZM5.82031 2.84375H16.3828C16.8516 2.84375 17.2266 2.47656 17.2266 2C17.2266 1.53125 16.8516 1.15625 16.3828 1.15625H5.82031C5.35156 1.15625 4.97656 1.52344 4.97656 2C4.97656 2.47656 5.34375 2.84375 5.82031 2.84375ZM1.97656 8.07812C2.64062 8.07812 3.1875 7.53125 3.1875 6.86719C3.1875 6.20312 2.64062 5.65625 1.97656 5.65625C1.3125 5.65625 0.765625 6.20312 0.765625 6.86719C0.765625 7.53125 1.3125 8.07812 1.97656 8.07812ZM5.82031 7.71094H16.3828C16.8516 7.71094 17.2266 7.34375 17.2266 6.86719C17.2266 6.39844 16.8516 6.02344 16.3828 6.02344H5.82031C5.35156 6.02344 4.97656 6.39062 4.97656 6.86719C4.97656 7.34375 5.34375 7.71094 5.82031 7.71094ZM1.97656 12.9453C2.64062 12.9453 3.1875 12.3984 3.1875 11.7344C3.1875 11.0703 2.64062 10.5234 1.97656 10.5234C1.3125 10.5234 0.765625 11.0703 0.765625 11.7344C0.765625 12.3984 1.3125 12.9453 1.97656 12.9453ZM5.82031 12.5781H16.3828C16.8516 12.5781 17.2266 12.2109 17.2266 11.7344C17.2266 11.2656 16.8516 10.8906 16.3828 10.8906H5.82031C5.35156 10.8906 4.97656 11.2578 4.97656 11.7344C4.97656 12.2109 5.34375 12.5781 5.82031 12.5781Z"
    fill="white"
  />
</svg>
