<svg
  width="18"
  height="24"
  viewBox="0 0 18 24"
  fill="none"
  xmlns="http://www.w3.org/2000/svg"
>
<path
    d="M18 12C18 12.3458 17.8722 12.6407 17.6067 12.9051L9.93707 20.6644C9.73058 20.8881 9.45526 21 9.14061 21C8.50148 21 8 20.4915 8 19.8203C8 19.4949 8.12783 19.2 8.34415 18.9763L15.2566 12L8.34415 5.02373C8.12783 4.78983 8 4.49492 8 4.16949C8 3.50847 8.50148 3 9.14061 3C9.45526 3 9.73058 3.11186 9.93707 3.33559L17.6067 11.0949C17.8722 11.3593 17.9902 11.6542 18 12Z"
    fill="#007AFF"
  />
</svg>
