<svg
  width="32"
  height="32"
  viewBox="0 0 32 32"
  fill="none"
  xmlns="http://www.w3.org/2000/svg"
>
<rect width="32" height="32" rx="10" fill="#B7B7B9" />
<path
    d="M7.84033 16.314C8.23877 16.314 8.5459 16.0068 8.5459 15.6084V14.8198C8.5459 13.3921 9.51709 12.4624 11.0195 12.4624H17.4941V14.4131C17.4941 14.7451 17.6934 14.936 18.0337 14.936C18.1831 14.936 18.3408 14.8779 18.457 14.7783L21.5947 12.1802C21.8604 11.9644 21.877 11.624 21.5947 11.3916L18.457 8.78516C18.3408 8.68555 18.1831 8.63574 18.0337 8.63574C17.6934 8.63574 17.4941 8.81836 17.4941 9.15869V11.0845H11.1523C8.72021 11.0845 7.13477 12.4707 7.13477 14.7202V15.6084C7.13477 16.0068 7.43359 16.314 7.84033 16.314ZM24.1514 15.7246C23.7446 15.7246 23.4458 16.0234 23.4458 16.4302V17.2188C23.4458 18.6465 22.4746 19.5679 20.9639 19.5679H14.4893V17.6421C14.4893 17.3018 14.2983 17.1191 13.958 17.1191C13.8003 17.1191 13.6509 17.1689 13.5264 17.2686L10.3887 19.8667C10.123 20.0991 10.1147 20.4312 10.3887 20.6553L13.5264 23.2617C13.6509 23.3613 13.8003 23.4194 13.958 23.4194C14.2983 23.4194 14.4893 23.2285 14.4893 22.8965V20.9541H20.8311C23.2715 20.9541 24.8569 19.5679 24.8569 17.3184V16.4302C24.8569 16.0234 24.5498 15.7246 24.1514 15.7246Z"
    fill="white"
  />
</svg>
