<svg
  width="32"
  height="32"
  viewBox="0 0 32 32"
  fill="none"
  xmlns="http://www.w3.org/2000/svg"
>
<rect width="32" height="32" rx="10" fill="#0C79FE" />
<path
    d="M16 24.4736C20.6318 24.4736 24.4668 20.6304 24.4668 16.0068C24.4668 11.375 20.6235 7.54004 15.9917 7.54004C11.3682 7.54004 7.5332 11.375 7.5332 16.0068C7.5332 20.6304 11.3765 24.4736 16 24.4736ZM11.6587 16.9033C11.3267 16.9033 11.0776 16.6543 11.0776 16.3223C11.0776 15.9985 11.3267 15.7495 11.6587 15.7495H15.4189V10.7275C15.4189 10.4038 15.668 10.1548 15.9917 10.1548C16.3154 10.1548 16.5728 10.4038 16.5728 10.7275V16.3223C16.5728 16.6543 16.3154 16.9033 15.9917 16.9033H11.6587Z"
    fill="white"
  />
</svg>
